<svg width="64" height="64" viewBox="0 0 64 64" fill="none" xmlns="http://www.w3.org/2000/svg">
<style>@media (prefers-color-scheme:light){path{fill:#944cff}}</style>
<path fill-rule="evenodd" clip-rule="evenodd" d="M42 9.5C42 8.67157 42.6716 8 43.5 8L48 8L48 54.5C48 55.3284 47.3284 56 46.5 56L43.5 56C42.6716 56 42 55.3284 42 54.5L42 9.5Z" fill="#c4a3f5"/>
<path fill-rule="evenodd" clip-rule="evenodd" d="M51 9.5C51 8.67157 51.6716 8 52.5 8L57 8L57 54.5C57 55.3284 56.3284 56 55.5 56L52.5 56C51.6716 56 51 55.3284 51 54.5L51 9.5Z" fill="#c4a3f5"/>
<path d="M25.5 56C24.6716 56 24 55.3284 24 54.5V21.5C24 20.6716 24.6716 20 25.5 20L30 20V48.5C30 49.3284 30.6716 50 31.5 50H39C39 54.5 39 54.5 39 54.5C39 54.5 39 56 37.5 56C36 56 25.5 56 25.5 56Z" fill="#c4a3f5"/>
<path d="M25.5 56C24.6716 56 24 55.3284 24 54.5V21.5C24 20.6716 24.6716 20 25.5 20L30 20V48.5C30 49.3284 30.6716 50 31.5 50H39C39 54.5 39 54.5 39 54.5C39 54.5 39 56 37.5 56C36 56 25.5 56 25.5 56Z" fill="#c4a3f5"/>
<path d="M25.5 56C24.6716 56 24 55.3284 24 54.5V21.5C24 20.6716 24.6716 20 25.5 20L30 20V48.5C30 49.3284 30.6716 50 31.5 50H39C39 54.5 39 54.5 39 54.5C39 54.5 39 56 37.5 56C36 56 25.5 56 25.5 56Z" fill="#c4a3f5"/>
<path d="M25.5 56C24.6716 56 24 55.3284 24 54.5V21.5C24 20.6716 24.6716 20 25.5 20L30 20V48.5C30 49.3284 30.6716 50 31.5 50H39C39 54.5 39 54.5 39 54.5C39 54.5 39 56 37.5 56C36 56 25.5 56 25.5 56Z" fill="#c4a3f5"/>
<path d="M7.5 20C6.67157 20 6 20.6716 6 21.5V54.5C6 55.3284 6.67157 56 7.5 56H10.5C11.3284 56 12 55.3284 12 54.5V27.5C12 26.6716 12.6716 26 13.5 26H19.5C20.3284 26 21 25.3284 21 24.5V20H7.5Z" fill="#c4a3f5"/>
<path d="M7.5 20C6.67157 20 6 20.6716 6 21.5V54.5C6 55.3284 6.67157 56 7.5 56H10.5C11.3284 56 12 55.3284 12 54.5V27.5C12 26.6716 12.6716 26 13.5 26H19.5C20.3284 26 21 25.3284 21 24.5V20H7.5Z" fill="#c4a3f5"/>
<path d="M7.5 20C6.67157 20 6 20.6716 6 21.5V54.5C6 55.3284 6.67157 56 7.5 56H10.5C11.3284 56 12 55.3284 12 54.5V27.5C12 26.6716 12.6716 26 13.5 26H19.5C20.3284 26 21 25.3284 21 24.5V20H7.5Z" fill="#c4a3f5"/>
<path d="M7.5 20C6.67157 20 6 20.6716 6 21.5V54.5C6 55.3284 6.67157 56 7.5 56H10.5C11.3284 56 12 55.3284 12 54.5V27.5C12 26.6716 12.6716 26 13.5 26H19.5C20.3284 26 21 25.3284 21 24.5V20H7.5Z" fill="#c4a3f5"/>
</svg>
