<svg width="512" height="512" fill="none" xmlns="http://www.w3.org/2000/svg"><style>@media (prefers-color-scheme:dark){path[stroke]{stroke:#fff}path[fill]{fill:#fff}}</style><path d="M129 76c22-20 56-38 82-44 29-7 58 0 87 6 27 5 56 14 78 29 25 14 45 36 60 58 16 23 29 47 34 76 4 29 0 69-7 98-4 27-13 51-27 74-15 24-38 46-60 62a209 209 0 01-169 27c-29-7-65-20-87-34-22-15-38-31-53-53-14-25-29-58-34-87-4-29 5-62 11-89 14-53 44-99 87-132 9-8 63-26 67-24l-69 33zM35 257A185 185 0 0198 99c43-39 98-62 156-65a205 205 0 01162 62 230 230 0 0163 160c-1 30-9 59-23 85a223 223 0 01-207 132c-27-3-60-5-84-18-27-11-47-34-65-56-20-20-38-42-47-71-11-27-15-69-18-89-2-18 5-22 7-22l-7 40v0z" stroke="#000" stroke-width="8" stroke-linecap="round"/><path d="M116 150a152 152 0 01129-74c24-2 49 2 73 10 23 9 46 28 63 45 17 15 26 30 34 53 9 21 17 55 17 81a174 174 0 01-136 159c-23 4-53 2-78-4-25-7-55-17-74-32-19-17-30-43-38-62-11-21-22-40-24-66-2-23 7-63 11-80 6-19 21-24 23-30zm0 0c4-4-6-2-2-2l2 2zm38-42c17-15 41-26 66-30 26-6 53-9 76-2 26 4 51 17 70 34 19 15 34 40 47 61 11 22 23 45 25 68 3 24-2 53-10 77-9 21-28 42-47 59-17 17-40 32-63 40a182 182 0 01-147-14c-21-13-42-34-57-56-13-19-21-38-25-63-2-24-2-53 4-79 4-25 11-49 32-70s65-47 93-55c28-11 68-4 70 0l-134 30v0z" stroke="#000" stroke-width="8" stroke-linecap="round"/><path d="M265 350c-18 2-36 0-54-11-15-9-38-33-46-51-12-16-12-29-7-47 2-18 13-42 24-58 14-15 29-29 45-35 18-5 38 0 58 4 18 4 38 9 51 24 13 14 27 41 29 58 4 20 2 40-7 56-9 18-31 36-46 45-14 11-38 13-47 15zm0 0c-7 2 14 0 14-3l-14 3zm98-70c-7 16-27 35-43 46-15 11-33 24-51 26-20 0-44-6-60-17-15-9-29-23-36-40-8-18-15-43-15-63 2-20 7-40 20-56 11-15 36-28 53-33 20-4 38-2 56 2 18 5 40 14 51 29 14 14 20 31 23 54 0 22-12 62-18 75-5 16-9 16-11 16l31-39z" stroke="#000" stroke-width="8" stroke-linecap="round"/><path d="M503 11v2l-4 9-25 22-43 41-60 63-72 75-69 81-52 58-31 39-23 26-13 17-11 13-12 15-11 18-9 10-6 9-3 1c-3 2-6 3-8 1h-1a8 8 0 01-4-4c-3-3-4-6-2-9 1-3 3-5 6-6 3-5 7-10 12-13l13-15 14-15 11-13 13-16 23-28 33-39 52-58 69-80 72-76 58-63 43-43 24-26c6-3 10-4 12-2l2 4 2 2z" fill="#000"/><path d="M287 201c9 4 18 11 22 22 5 11 7 29 3 40-3 14-9 23-18 29-11 7-29 14-40 14-11-3-20-11-29-20s-20-23-23-34c0-11 5-27 12-35 8-9 17-20 31-23 13-2 42 7 51 9s2 5 2 5l-11-7zm-33-2c11 0 29 4 38 11 11 7 24 20 26 31 5 9 0 18-6 29-7 9-23 22-34 29-11 4-18 11-29 7-11-3-27-14-35-25-7-11-16-27-14-38 0-13 14-24 25-33 9-11 15-13 20-16h4" fill="#000"/><path d="M316 239c4 9 0 20-4 29-5 9-16 20-27 27-11 4-31 8-42 8-12-2-18-11-23-20-6-11-15-29-13-40 2-13 13-26 20-35 10-8 18-14 27-14 11-2 24 5 33 12 11 6 20 17 24 22 5 6 3 9 3 9l2 2zm-52-45c14 0 30 7 39 16 8 9 17 24 20 36 0 11-9 22-16 31-9 9-20 22-31 27-11 2-27 0-36-7-11-5-22-18-27-29-4-9-6-20-4-31s13-28 22-35c21-13 36-5 45-5 4 1 4 4 4 4l-16-7v0z" stroke="#000" stroke-width="8" stroke-linecap="round"/></svg>